<?xml version="1.0" standalone="no"?><!DOCTYPE svg PUBLIC "-//W3C//DTD SVG 1.1//EN" "http://www.w3.org/Graphics/SVG/1.1/DTD/svg11.dtd"><svg t="1552051552198" class="icon" style="" viewBox="0 0 1067 1024" version="1.1" xmlns="http://www.w3.org/2000/svg" p-id="3163" xmlns:xlink="http://www.w3.org/1999/xlink" width="50.015625" height="48"><defs><style type="text/css"></style></defs><path d="M31.148119 298.665547h986.449634a442.025009 442.025009 0 0 1 13.226617 110.079587c-9.386631 180.052658 0 575.571175 0 575.571175s-353.70534 26.879899-530.344678 26.879899c-156.586079 0-469.331573-26.879899-469.331573-26.879899V298.665547z" fill="#FFA993" p-id="3164"></path><path d="M384.000129 469.331573a573.864515 573.864515 0 0 0 157.866075 48.213153c61.866435 0 199.252586-125.012865 199.252586-125.012865s24.746574-156.586079 37.119861-159.9994A65.70642 65.70642 0 0 1 832.851779 277.758958a245.332413 245.332413 0 0 1 9.386632 89.172999 380.158574 380.158574 0 0 1-101.546286 150.612769 372.051938 372.051938 0 0 1-221.012505 74.666387 1184.84889 1184.84889 0 0 1-161.279395-42.666507 947.196448 947.196448 0 0 1-102.399616-148.052778 187.732629 187.732629 0 0 1-23.893244-60.159775 323.412121 323.412121 0 0 1 0-73.386391c7.679971-16.639938 51.199808 8.959966 60.159775 17.493268 37.973191 37.546526 91.732989 183.892644 91.732989 183.892643z" fill="#FFFFFF" p-id="3165"></path><path d="M965.544615 1023.99616H101.547855a100.692956 100.692956 0 0 1-101.546286-101.119621L37.97476 100.692956A100.692956 100.692956 0 0 1 138.667716 0h789.330373a100.692956 100.692956 0 0 1 100.692956 100.266291l37.973191 822.183583a100.692956 100.692956 0 0 1-101.119621 101.546286zM37.548095 923.303204a63.573095 63.573095 0 0 0 63.573095 63.14643h864.423425a63.573095 63.573095 0 0 0 63.573095-63.14643l-37.119861-821.756918a63.573095 63.573095 0 0 0-63.573095-63.99976H138.667716a63.573095 63.573095 0 0 0-63.573095 63.573095L37.548095 923.303204z m495.784807-311.038833a328.105436 328.105436 0 0 1-328.105436-327.678772v-40.533181h2.55999a60.159774 60.159774 0 0 1 113.066243 0h5.973311V272.638978a102.399616 102.399616 0 0 0 0 12.799952 207.785887 207.785887 0 0 0 415.571775 0 82.346358 82.346358 0 0 0 0-11.093292v-29.866555h5.119981a61.013105 61.013105 0 0 1 119.039553 19.199928v20.906588a328.532101 328.532101 0 0 1-328.532101 327.678772zM242.347327 281.598944v3.413321a291.412241 291.412241 0 0 0 582.824481 0v-18.773263a24.106576 24.106576 0 0 0-48.213153 0v3.41332a119.039554 119.039554 0 0 1 0 16.213273 244.905748 244.905748 0 0 1-489.811496 0 133.972831 133.972831 0 0 1 0-17.919933v-4.266651a23.039914 23.039914 0 0 0-46.079827 0v17.493268z" fill="#505050" p-id="3166"></path></svg>